<svg width="105" height="85" viewBox="0 0 105 85" fill="none" xmlns="http://www.w3.org/2000/svg">
<circle cx="90.5" cy="17.5" r="14.1588" stroke="white" stroke-width="0.682354" stroke-dasharray="3.41 3.41"/>
<circle cx="52.5" cy="42.5" r="15.985" stroke="white" stroke-width="7.03" stroke-dasharray="9.41 9.41"/>
<circle cx="14.5" cy="66.5" r="14.1588" stroke="white" stroke-width="0.682354" stroke-dasharray="3.41 3.41"/>
<path fill-rule="evenodd" clip-rule="evenodd" d="M94.6408 48.0509L93.1534 47.8569L91.666 47.6629C91.8862 45.9744 92 44.2513 92 42.5C92 40.7487 91.8862 39.0256 91.666 37.3371L93.1534 37.1431L94.6408 36.9491C94.8778 38.7658 95 40.6186 95 42.5C95 44.3814 94.8778 46.2342 94.6408 48.0509ZM75.1164 6.51078C74.524 7.31368 74.0049 8.17393 73.569 9.08167C71.6867 7.8923 69.6975 6.85788 67.6193 5.9961L68.1939 4.61051L68.7685 3.22492C70.9853 4.14421 73.1075 5.24573 75.1164 6.51078ZM58.0509 0.359222C56.2342 0.122244 54.3814 0 52.5 0C50.6186 0 48.7658 0.122244 46.9491 0.359222L47.1431 1.84662L47.3371 3.33402C49.0256 3.11378 50.7487 3 52.5 3C54.2513 3 55.9744 3.11378 57.6629 3.33402L57.8569 1.84662L58.0509 0.359222ZM36.2315 3.22492L36.8061 4.61051L37.3807 5.9961C34.1711 7.32708 31.1737 9.06983 28.4547 11.1593L27.5407 9.9699L26.6267 8.78052C29.5512 6.53316 32.7764 4.65771 36.2315 3.22492ZM18.7805 16.6267L19.9699 17.5407L21.1593 18.4547C19.0698 21.1737 17.3271 24.1711 15.9961 27.3807L14.6105 26.8061L13.2249 26.2315C14.6577 22.7764 16.5332 19.5512 18.7805 16.6267ZM10.3592 36.9491C10.1222 38.7658 10 40.6186 10 42.5C10 44.3814 10.1222 46.2342 10.3592 48.0509L11.8466 47.8569L13.334 47.6629C13.1138 45.9744 13 44.2513 13 42.5C13 40.7487 13.1138 39.0256 13.334 37.3371L11.8466 37.1431L10.3592 36.9491ZM31.9077 79.687C33.3027 80.4611 34.7459 81.159 36.2315 81.7751L36.8061 80.3895L37.3807 79.0039C36.1231 78.4824 34.8981 77.8977 33.7096 77.2537C33.1857 78.122 32.5817 78.9365 31.9077 79.687ZM46.9491 84.6408L47.1431 83.1534L47.3371 81.666C49.0256 81.8862 50.7487 82 52.5 82C54.2513 82 55.9744 81.8862 57.6629 81.666L57.8569 83.1534L58.0509 84.6408C56.2342 84.8778 54.3814 85 52.5 85C50.6186 85 48.7658 84.8778 46.9491 84.6408ZM68.7685 81.7751C72.2236 80.3423 75.4488 78.4668 78.3733 76.2195L77.4593 75.0301L76.5453 73.8407C73.8263 75.9302 70.8289 77.6729 67.6193 79.0039L68.1939 80.3895L68.7685 81.7751ZM86.2195 68.3733L85.0301 67.4593L83.8407 66.5453C85.9302 63.8263 87.6729 60.8289 89.0039 57.6193L90.3895 58.1939L91.7751 58.7685C90.3423 62.2236 88.4668 65.4488 86.2195 68.3733Z" fill="white"/>
<circle cx="52.5" cy="42.5" r="9" stroke="white" stroke-width="3"/>
</svg>
